<svg xmlns="http://www.w3.org/2000/svg" viewBox="0 0 500 500"><g id="freepik--Shadow--inject-84"><ellipse id="freepik--path--inject-84" cx="250" cy="415.69" rx="193.89" ry="11.32" style="fill:#f5f5f5"></ellipse></g><g id="freepik--character-1--inject-84"><path d="M126.61,386.8l-14.32,13.59a59.31,59.31,0,0,1-4.44-4.73l12.43-12.88Z" style="fill:#f7978d"></path><path d="M113.3,401.67a.22.22,0,0,1,0-.22.19.19,0,0,1,.2-.07c.12,0,3,.87,3.71,2a1,1,0,0,1,.14.72.66.66,0,0,1-.51.58c-.5.1-1.27-.48-2-1.2A13.08,13.08,0,0,1,113.3,401.67Zm3.4,1.65a8.1,8.1,0,0,0-2.77-1.42c.88,1.16,2.27,2.54,2.85,2.45.08,0,.18-.07.24-.32a.58.58,0,0,0-.09-.44,1.93,1.93,0,0,0-.22-.28Z" style="fill:#FFC100"></path><path d="M113.29,401.54a.15.15,0,0,1,.08-.16c.07-.05,1.56-1.38,2.79-1.25a1.32,1.32,0,0,1,.9.54.69.69,0,0,1,.14.85c-.46.73-2.86.59-3.79.23l-.07-.05Zm2.84-1a3.86,3.86,0,0,0-2.28,1c1.05.27,2.84.26,3.08-.19,0,0,.09-.15-.11-.4l-.1-.06A1,1,0,0,0,116.13,400.51Z" style="fill:#FFC100"></path><path d="M113.39,399.8l-4.5-5a.62.62,0,0,0-.81-.12l-5.25,3.06c-.5.34-.19,1.72-.15,1.77,2.77,3.72,8.72,10.6,10.95,13s4.68.49,4-.68c-3.21-5.27-3.54-8.15-3.69-10.72A2.05,2.05,0,0,0,113.39,399.8Z" style="fill:#263238"></path><g style="opacity:0.2"><polygon points="115.19 387.92 120.28 382.78 126.61 386.8 120.27 392.7 115.19 387.92"></polygon></g><path d="M120.86,317.55a19.12,19.12,0,0,0,0,4.21c.76,7.41,18.74,39.37,17.23,40.36-5.84,3.83-12.09,10.55-19.94,22.73a92.17,92.17,0,0,1,6,7.18s22.71-17.38,28.11-24.8c3.33-4.56-8.91-55.5-12.59-58.74C137.67,306.68,121.82,303.89,120.86,317.55Z" style="fill:#263238"></path><g style="opacity:0.2;isolation:isolate"><path d="M120.86,317.55a19.12,19.12,0,0,0,0,4.21c.76,7.41,18.74,39.37,17.23,40.36-5.84,3.83-12.09,10.55-19.94,22.73a92.17,92.17,0,0,1,6,7.18s22.71-17.38,28.11-24.8c3.33-4.56-8.91-55.5-12.59-58.74C137.67,306.68,121.82,303.89,120.86,317.55Z"></path></g><path d="M127.4,390.28c0,.05-3.83,3.05-3.83,3.05l-7.68-8.79L119,381.3Z" style="fill:#263238"></path><path d="M127.4,390.28c0,.05-3.83,3.05-3.83,3.05l-7.68-8.79L119,381.3Z" style="fill:#fff;opacity:0.6000000000000001"></path><path d="M143.84,304.26l2.3,1-16.6,27.61s-8.95,3.56-13.19-5.7C108.73,310.5,121,295,121,295S135.49,300.43,143.84,304.26Z" style="fill:#263238"></path><path d="M75.69,389.19,58.94,399.66a59.6,59.6,0,0,1-3.41-5.53L70.28,384Z" style="fill:#f7978d"></path><path d="M59.67,401.1a.2.2,0,0,1,0-.21.19.19,0,0,1,.2,0c.12.06,2.8,1.45,3.24,2.73a1,1,0,0,1,0,.74.65.65,0,0,1-.62.46c-.51,0-1.14-.72-1.68-1.56A13.73,13.73,0,0,1,59.67,401.1Zm3,2.31a8.18,8.18,0,0,0-2.44-2c.63,1.31,1.72,2.94,2.31,3,.08,0,.19,0,.3-.27a.61.61,0,0,0,0-.44,1.91,1.91,0,0,0-.16-.32Z" style="fill:#FFC100"></path><path d="M59.69,401a.16.16,0,0,1,.11-.14c.08,0,1.81-1,3-.67a1.34,1.34,0,0,1,.77.71.71.71,0,0,1,0,.86c-.6.62-2.92,0-3.76-.54l-.06-.05Zm3-.44a3.8,3.8,0,0,0-2.42.49c1,.47,2.73.81,3.06.42,0,0,.11-.13,0-.42l-.09-.07A.86.86,0,0,0,62.67,400.54Z" style="fill:#FFC100"></path><path d="M60.13,399.3l-3.41-5.79a.64.64,0,0,0-.77-.28l-5.75,1.95c-.57.24-.54,1.65-.5,1.71,2,4.2,6.42,12.12,8.13,14.91s4.5,1.41,4,.12c-2.09-5.8-1.84-8.69-1.47-11.24A2,2,0,0,0,60.13,399.3Z" style="fill:#263238"></path><g style="opacity:0.2"><polygon points="64.28 388.01 70.28 383.99 75.69 389.19 68.3 393.71 64.28 388.01"></polygon></g><path d="M116.57,312.35a18.38,18.38,0,0,0-1.59,3.89c-2.17,7.12-20.83,44.86-22.44,45.69-9,4.6-25.48,23.08-25.48,23.08,1,3.12,5,7.95,5,7.95s22.84-15.09,30.37-20.32c13-9,38.64-55.4,36.49-59.82C137.72,310.35,122.75,300.13,116.57,312.35Z" style="fill:#263238"></path><path d="M75.68,392.08c0,.05-4.12,2.63-4.12,2.63l-6.73-9.54,3.46-2.89Z" style="fill:#263238"></path><path d="M75.68,392.08c0,.05-4.12,2.63-4.12,2.63l-6.73-9.54,3.46-2.89Z" style="fill:#fff;opacity:0.6000000000000001"></path><path d="M199.83,271c.08-.85,2.89-4.82,3.47-4.6a6.58,6.58,0,0,1,1.92,3c-.13.7-2,6-5.43,6C198.48,275.28,199.83,271,199.83,271Z" style="fill:#f7978d"></path><path d="M203.3,266.35s2.13-1.28,2.92-1a7.09,7.09,0,0,1,1.92,1.56l-2.92,2.43Z" style="fill:#f7978d"></path><polygon points="196.52 271.23 199.83 270.95 199.79 275.29 193.45 275.23 196.52 271.23" style="fill:#f7978d"></polygon><path d="M198.84,270.68l0,5.72-21,1c-.79-.12-18.41-2.13-19.89-2.34L157,263.29c.81.27,10.91,3.49,20.77,6.13C180.07,269.47,197.78,270.88,198.84,270.68Z" style="fill:#FFC100"></path><g style="opacity:0.1;isolation:isolate"><path d="M198.84,270.68l0,5.72-21,1c-.79-.12-18.41-2.13-19.89-2.34L157,263.29c.81.27,10.91,3.49,20.77,6.13C180.07,269.47,197.78,270.88,198.84,270.68Z"></path></g><path d="M171.42,276.81c-3.73-.52-11.09-1.42-13.49-1.76l-.41-5.1C160,272.45,161.22,274,171.42,276.81Z" style="opacity:0.2;isolation:isolate"></path><g id="freepik--Character--inject-2--inject-84"><path d="M135.43,255.5a6.31,6.31,0,0,1,6.57-2.14l.06,0c1.75.67,3.92,1.57,6,2.6a103.6,103.6,0,0,1,13.31,8.81,5.84,5.84,0,0,1,1.55,5.66c-1.47,6.45-7.57,22-18.69,38L121,295S128.59,288.91,135.43,255.5Z" style="fill:#FFC100"></path><path d="M159.42,255.84a11.89,11.89,0,0,0-.77,1.09,5.8,5.8,0,0,0-.34.52c-.33.52-.59.92-.79,1.25a1.46,1.46,0,0,0-.08,1.84,5.43,5.43,0,0,1,.59,4.55c-.51,1.47-1.61,2.72-3.95,1.81-5-2.3-6.25-7.9-6.25-7.9,3.8-1.32,6.17-8.72,7.13-12.95l1.89,4.15Z" style="fill:#f7978d"></path><path d="M158.65,256.93a5.8,5.8,0,0,0-.34.52c-.33.52-.59.92-.79,1.25-1.4-1.16-2.62-3.78-2.07-5.48a7.68,7.68,0,0,1,.73-1.66Z" style="opacity:0.2;isolation:isolate"></path><path d="M159.83,236.54a7.55,7.55,0,0,1,10.5,2c3.56,4.93,0,12.69-3.66,16.47a7.45,7.45,0,0,1-12.74-3.42c-1-4.08.78-6.94,3.37-12.06A7.45,7.45,0,0,1,159.83,236.54Z" style="fill:#f7978d"></path><path d="M165,255.16a28.25,28.25,0,0,1-5.95-2.58c1.2-1.27,2.47-1.29,4.63-.13S165,255.16,165,255.16Z" style="fill:#263238"></path><path d="M164.77,255.09a1.15,1.15,0,0,0-.32-1.1,21.62,21.62,0,0,0-3.94-1.58,1.25,1.25,0,0,0-1.29.25A33,33,0,0,0,164.77,255.09Z" style="fill:#fafafa"></path><path d="M164.29,254.05a12.81,12.81,0,0,1-3.6-1.39,2.07,2.07,0,0,1-.6-.89c.91-.41,2-.17,3.58.65a2.83,2.83,0,0,1,1.37,1.36A3.36,3.36,0,0,1,164.29,254.05Z" style="fill:#fafafa"></path><path d="M165.64,252.06a2.63,2.63,0,0,0,2.17.47,16.85,16.85,0,0,1-.61-4.58Z" style="fill:#ff5652"></path><path d="M157.69,233.27l-4.4,1a8.84,8.84,0,0,0-2.43.83,3,3,0,0,0-1.54,2,3,3,0,0,0,1.7,3,3.26,3.26,0,0,0-1.07,2.49,3.67,3.67,0,0,0,1.29,2.59,2.44,2.44,0,0,0,.11,2.09c.31.71,2.27,1.38,2.18,3.73a26.68,26.68,0,0,1,2.22-4.71c.94-1.43,3.1-5,6.08-4.24.66.17,3.92-5.22,2.08-5.92C162.79,235.7,158.18,233.16,157.69,233.27Z" style="fill:#263238"></path><path d="M171.75,242.3a24.15,24.15,0,0,0-.79-6.45,5.56,5.56,0,0,0-1.21-2.29,2.53,2.53,0,0,0-2.43-.78,8,8,0,0,0-1.48-1.93,3.25,3.25,0,0,0-2.21-.89,1.9,1.9,0,0,0-1.87,1.16,12.73,12.73,0,0,0-3.53-.27,4.94,4.94,0,0,0-3.16,1.44,3.11,3.11,0,0,0-.67,3.28,6.75,6.75,0,0,1,5.49-1.09c1.81.53,3.35,2.91,4.07,4.65a4.93,4.93,0,0,1,5.21,2.49,1.74,1.74,0,0,1,1.56-.18C171.16,241.68,171.73,241.8,171.75,242.3Z" style="fill:#263238"></path><path d="M156.43,241.37c1.3.33,1.59,1.66,1.4,3.33-.29,2.09-1.7,3.55-3,2.7-1-.53-1.27-2.28-1.14-3.51C153.82,242.33,155,241,156.43,241.37Z" style="fill:#f7978d"></path><path d="M164.94,245.69c.25.17.25.67,0,1s-.61.56-.87.4-.24-.6,0-1S164.68,245.53,164.94,245.69Z" style="fill:#263238"></path><path d="M169.72,247.68c.26.16.29.61.07,1s-.62.62-.88.46-.29-.62-.06-1S169.46,247.53,169.72,247.68Z" style="fill:#263238"></path><path d="M169.83,245.41a.29.29,0,0,1,.16.2,2.33,2.33,0,0,0,1.12,1.68.26.26,0,0,1,.14.35v0a.28.28,0,0,1-.36.13h0a2.86,2.86,0,0,1-1.42-2.08.29.29,0,0,1,.22-.32Z" style="fill:#263238"></path><path d="M164.18,243.93a.27.27,0,0,1,.26,0,2.34,2.34,0,0,0,2,0,.26.26,0,0,1,.36.08h0a.27.27,0,0,1-.1.37h0a2.8,2.8,0,0,1-2.52,0,.28.28,0,0,1-.13-.36A.52.52,0,0,1,164.18,243.93Z" style="fill:#263238"></path></g><rect x="195.28" y="242.62" width="160.69" height="171.28" style="fill:#FFC100"></rect><rect x="195.28" y="242.63" width="160.69" height="171.27" style="fill:#fff;opacity:0.6000000000000001"></rect><rect x="314.13" y="242.63" width="41.84" height="171.27" style="opacity:0.1"></rect><path d="M193.48,269.3c0-.87,2.75-5,3.35-4.81a6.74,6.74,0,0,1,2.08,3c-.11.72-1.81,6.17-5.3,6.27C192.27,273.76,193.48,269.3,193.48,269.3Z" style="fill:#f7978d"></path><path d="M196.83,264.49s2.12-1.39,2.94-1.13a7.31,7.31,0,0,1,2,1.5l-2.88,2.59Z" style="fill:#f7978d"></path><polygon points="190.12 269.72 193.48 269.3 193.61 273.72 187.15 273.91 190.12 269.72" style="fill:#f7978d"></polygon><path d="M143.62,254c-7.75-3.82-11.41,5-7.25,9.84,1.62,1.87,13.91,8.16,25.61,10,9.78,1.5,26.39,1.56,29.49,1.44l-.2-6.71-28.46-3.06Z" style="fill:#FFC100"></path><g style="opacity:0.1"><path d="M143.62,254c-7.75-3.82-11.41,5-7.25,9.84,1.62,1.87,13.91,8.16,25.61,10,9.78,1.5,26.39,1.56,29.49,1.44l-.2-6.71-28.46-3.06Z" style="fill:#fff"></path></g><path d="M123.64,413c-1.67.14,51.32,0,51.32,0l-.23-8.05L168,409.27v-3.55L157.09,410v-3.8S148,410.94,123.64,413Z" style="fill:#FFC100"></path><path d="M123.64,413c-1.67.14,51.32,0,51.32,0l-.23-8.05L168,409.27v-3.55L157.09,410v-3.8S148,410.94,123.64,413Z" style="fill:#fff;opacity:0.6000000000000001"></path></g><g id="freepik--character-2--inject-84"><path d="M196.28,397.94l-18.47,7.78a61.66,61.66,0,0,1-2.53-6.09l16.43-7.78Z" style="fill:#f7978d"></path><path d="M178.31,407.29a.23.23,0,0,1,.07-.21.18.18,0,0,1,.21,0c.11.08,2.57,1.9,2.8,3.26a1,1,0,0,1-.12.73.66.66,0,0,1-.7.36c-.51-.07-1-.91-1.43-1.83A13.64,13.64,0,0,1,178.31,407.29Zm2.64,2.79a8.22,8.22,0,0,0-2.13-2.34c.43,1.41,1.25,3.23,1.84,3.35.08,0,.19,0,.34-.22a.58.58,0,0,0,.07-.45,1.57,1.57,0,0,0-.11-.35Z" style="fill:#FFC100"></path><path d="M178.35,407.17a.16.16,0,0,1,.13-.13c.08,0,2-.75,3.1-.19a1.36,1.36,0,0,1,.66.84.71.71,0,0,1-.17.86c-.7.52-2.93-.46-3.68-1.14l0-.07Zm3.06,0a3.83,3.83,0,0,0-2.5.1c.9.63,2.6,1.25,3,.91,0,0,.14-.1,0-.42l-.07-.09A.89.89,0,0,0,181.41,407.21Z" style="fill:#FFC100"></path><path d="M179.06,405.55l-2.49-6.35a.64.64,0,0,0-.72-.4l-6.08,1c-.6.15-.8,1.57-.78,1.63,1.3,4.52,4.49,13.19,5.75,16.25s4.28,2.14,4,.77c-1.16-6.15-.44-9,.33-11.49A2,2,0,0,0,179.06,405.55Z" style="fill:#263238"></path><g style="opacity:0.2"><polygon points="185.04 394.91 191.71 391.85 196.28 397.94 188.15 401.27 185.04 394.91"></polygon></g><path d="M220.21,327.43a19.82,19.82,0,0,0-1.47,4c-1.93,7.31-.9,46.77-2.69,47.17-6.92,1.55-15.26,5.7-27.08,14.45a91.82,91.82,0,0,1,3.16,9s27.81-8.38,35.59-13.49c4.79-3.15,16-58.58,13.67-63C240.07,323.12,226,314.8,220.21,327.43Z" style="fill:#FFC100"></path><g style="opacity:0.2"><path d="M220.21,327.43a19.82,19.82,0,0,0-1.47,4c-1.93,7.31-.9,46.77-2.69,47.17-6.92,1.55-15.26,5.7-27.08,14.45a91.82,91.82,0,0,1,3.16,9s27.81-8.38,35.59-13.49c4.79-3.15,16-58.58,13.67-63C240.07,323.12,226,314.8,220.21,327.43Z"></path></g><path d="M246.05,316.72l2.37.89c-1.88,13.06-3.14,17.95-3.14,17.95l-2.76,7.29h0s-20.19,4.22-24.84-5c-8.36-16.59,4.81-29.64,4.81-29.64S237.44,313.15,246.05,316.72Z" style="fill:#FFC100"></path><path d="M273.81,397.92l-4.11,19c-.64.19-6.33.48-6.33.48L265.44,399Z" style="fill:#f7978d"></path><path d="M271.49,416.53a.19.19,0,0,1-.09-.19.22.22,0,0,1,.14-.17c.14,0,3.23-.93,4.38-.27a.87.87,0,0,1,.45.57.73.73,0,0,1-.23.8c-.41.38-1.39.29-2.36,0A12.37,12.37,0,0,1,271.49,416.53Zm3.92-.43a8.2,8.2,0,0,0-3.22.29c1.33.54,3.25,1,3.75.59.07-.07.14-.16.08-.42a.53.53,0,0,0-.27-.35,2,2,0,0,0-.34-.12Z" style="fill:#FFC100"></path><path d="M271.43,416.43a.18.18,0,0,1,0-.2c0-.08.84-2.12,2.05-2.7a1.4,1.4,0,0,1,1.08,0,.66.66,0,0,1,.51.69c-.11.91-2.41,2.15-3.44,2.34h-.09Zm2.2-2.53a4.74,4.74,0,0,0-1.7,2.15c1.1-.36,2.76-1.38,2.79-1.91,0-.05,0-.18-.28-.3h-.12A1,1,0,0,0,273.63,413.9Z" style="fill:#FFC100"></path><path d="M270.75,414.81l-7.18-2.19a.71.71,0,0,0-.81.35l-3.55,5.71c-.32.6.58,1.66.64,1.68,4.24,1.77,13.62,4.84,16.77,5.72s4.59-2.2,3.4-2.85c-5.33-2.92-6.92-5.32-8.19-7.54A1.79,1.79,0,0,0,270.75,414.81Z" style="fill:#263238"></path><g style="opacity:0.2"><polygon points="264.76 405.02 265.44 398.98 273.81 397.92 272.06 406.18 264.76 405.02"></polygon></g><path d="M217.92,333.71c10.18,14,49.2,28.78,49.2,28.78a306.14,306.14,0,0,0-2.36,37.9,45,45,0,0,1,9,1.73s9.48-37.95,9.48-46.52c0-8.12-50.39-45.1-62.44-38.41C217.46,319,213.17,327.2,217.92,333.71Z" style="fill:#FFC100"></path><path d="M276.69,398.24c.07,0-1.52,5.29-1.52,5.29l-13.3-2.15.79-5Z" style="fill:#FFC100"></path><path d="M195.78,401.52c0,.07-4.72,1.53-4.72,1.53L186.9,392l4.14-2Z" style="fill:#FFC100"></path><path d="M276.69,398.24c.07,0-1.52,5.29-1.52,5.29l-13.3-2.15.79-5Z" style="opacity:0.2"></path><path d="M195.78,401.52c0,.07-4.72,1.53-4.72,1.53L186.9,392l4.14-2Z" style="opacity:0.2"></path><g id="freepik--character-inject-2--inject-84"><path d="M247.33,320l-25.78-13.28c1.08-2.58,2.75-6.19,7.64-16.69a184.86,184.86,0,0,0,8.31-22.41l0-.07a3.75,3.75,0,0,1,4.74-2.36l.06,0c1.8.62,4,1.45,6.15,2.42a113.84,113.84,0,0,1,11.83,6.09,32.92,32.92,0,0,1,3.55,2.67,5.69,5.69,0,0,1,2,5.45C264.65,288.4,262,295.71,247.33,320Z" style="fill:#FFC100"></path><path d="M247.33,320l-24.88-12.81c1.09-2.59,1.62-2.6,15-39.57l0-.07a3.73,3.73,0,0,1,4.64-2.41l.06,0c1.74.59,3.9,1.38,5.94,2.3a110.56,110.56,0,0,1,11.4,5.88,31.64,31.64,0,0,1,3.41,2.6,5.55,5.55,0,0,1,1.91,5.38C263.57,287.84,261.93,295.68,247.33,320Z" style="fill:#fff;opacity:0.8"></path><path d="M247.35,324.64c.09-.58-28-11.16-28-11.16l1.43-3.39L248.49,322Z" style="fill:#263238"></path><path d="M247.35,324.64c.09-.58-28-11.16-28-11.16l1.43-3.39L248.49,322Z" style="fill:#fff;opacity:0.7000000000000001"></path><path d="M248.3,267c-2.22-1-4.59-1.89-6.49-2.54l-.06,0-.11,0a3.93,3.93,0,0,0-4.92,2.6A194.47,194.47,0,0,1,228,290.58c-7.49,6.86-18.18,4-24.38,10.09l-5.66,4.67,1.83.47a56,56,0,0,1,24.11,13h0c24.12-8.69,27.19-45.71,25.65-51.29Z" style="fill:#263238"></path><path d="M231.52,282.16c1.62-4.37,2.73-7.41,4.31-12.35a1.19,1.19,0,0,1,.25-.13c2-.95,4.23-1.13,1.39,4.87C237.47,274.55,232.63,281.73,231.52,282.16Z" style="opacity:0.2;isolation:isolate"></path><path d="M254.34,274.71c-6-2.7-6.35-7.3-6.35-7.3,3.9-1.25,6.49-8.7,7.57-13l1.81,4.25,2.47,5.8a16.36,16.36,0,0,0-1.17,1.6c-1.44,2.21-1.93,4.66,1.09,7.24C259.76,273.34,259.49,277,254.34,274.71Z" style="fill:#f7978d"></path><path d="M247,266.35l2.15.26c1,3,4,6,6.22,8.22a7.7,7.7,0,0,0-4.13,1.81C246.11,271.31,247,266.35,247,266.35Z" style="fill:#FFC100"></path><path d="M249.17,266.61c1,3,4,6,6.22,8.22a7.7,7.7,0,0,0-4.13,1.81c-5.15-5.33-4.24-10.29-4.24-10.29" style="fill:#fff;opacity:0.7000000000000001"></path><path d="M259.91,273l-1.51-1.22s-2.48,3.15-4.46,2.76c2.42,2.72,2.15,4.47,2.15,4.47C261.16,279.85,259.91,273,259.91,273Z" style="fill:#FFC100"></path><path d="M303.26,279.71c0-.8,2.4-4.7,3-4.54a6.21,6.21,0,0,1,2,2.68c-.08.67-1.49,5.74-4.71,5.94C302.27,283.86,303.26,279.71,303.26,279.71Z" style="fill:#f7978d"></path><path d="M306.22,275.17s1.92-1.34,2.68-1.12a6.55,6.55,0,0,1,1.91,1.33l-2.59,2.47Z" style="fill:#f7978d"></path><polygon points="300.17 280.19 303.3 280.22 303.51 283.79 297.55 284.14 300.17 280.19" style="fill:#f7978d"></polygon><path d="M301.66,280.13l-1.08,5.08-19.81,1.54-18-1.82-1.3-11c.78.22,9.62,3.22,19,5.36C282.6,279.22,301.66,280.13,301.66,280.13Z" style="fill:#263238"></path><g style="opacity:0.2;isolation:isolate"><path d="M301.66,280.13l-1.08,5.08-19.81,1.54-18-1.82-1.3-11c.78.22,9.62,3.22,19,5.36C282.6,279.22,301.66,280.13,301.66,280.13Z"></path></g><path d="M273.89,286.05l-11.14-1.12-.48-4.13C263.92,281.7,269.92,284,273.89,286.05Z" style="opacity:0.2;isolation:isolate"></path><path d="M248,326.45l-4.81-2.9c12.54-19.9,17.64-43.22,16.63-50.52,1.82,1.06,1.88.69,3.58,1.93a6.63,6.63,0,0,1,2.16,6.17C265.54,287.23,262.23,295,248,326.45Z" style="fill:#263238"></path><path d="M259.91,273l-1.51-1.22s-2.48,3.15-4.46,2.76c2.42,2.72,2.15,4.47,2.15,4.47C261.16,279.85,259.91,273,259.91,273Z" style="fill:#fff;opacity:0.7000000000000001"></path><path d="M259,265.59l-2.37-5.53a8.74,8.74,0,0,0-.78,1.67c-.6,1.77.64,4.55,2.08,5.72Z" style="opacity:0.2;isolation:isolate"></path><path d="M260.75,244.92a7.66,7.66,0,0,1,10.6,2.25c3.49,5.1-.36,12.88-4.13,16.63a7.57,7.57,0,0,1-12.85-3.8c-.88-4.16,1-7,3.73-12.15A7.62,7.62,0,0,1,260.75,244.92Z" style="fill:#f7978d"></path><path d="M254.19,258.77s.66-4.75,3.68-5.32c.26-2.76,2.3-1.21,3.41-2.7,1.46-1.65,2.77-3.27,1.75-5.4l-2.89-1.88C250.84,240,254.19,258.77,254.19,258.77Z" style="fill:#263238"></path><path d="M266.7,260.69a2.67,2.67,0,0,0,2.23.34,17.17,17.17,0,0,1-.93-4.6Z" style="fill:#ff5652"></path><path d="M257.46,249.8c1.69.56,2,2.24,1.51,3.62-.35,2.13-1.85,3.59-3.5,1.87a5.45,5.45,0,0,1-.75-3.59A2,2,0,0,1,257.46,249.8Z" style="fill:#f7978d"></path><path d="M265.69,254.34c.26.18.24.68,0,1s-.63.55-.89.38-.23-.61,0-1S265.44,254.17,265.69,254.34Z" style="fill:#263238"></path><path d="M270.34,256.45c.25.17.26.63,0,1s-.66.6-.92.42-.26-.64,0-1S270.08,256.27,270.34,256.45Z" style="fill:#263238"></path><path d="M266.84,252.92a.32.32,0,0,1-.27,0,2.35,2.35,0,0,0-2-.05.28.28,0,0,1-.38-.09h0a.29.29,0,0,1,.1-.38h0a2.88,2.88,0,0,1,2.56,0,.28.28,0,0,1,.13.37A.52.52,0,0,1,266.84,252.92Z" style="fill:#263238"></path><path d="M271.78,256.39a.32.32,0,0,1-.2-.18,2.35,2.35,0,0,0-1.39-1.5.27.27,0,0,1-.19-.33h0a.29.29,0,0,1,.35-.19h0a2.89,2.89,0,0,1,1.76,1.85.3.3,0,0,1-.18.36Z" style="fill:#263238"></path><path d="M275.26,246.59a3.27,3.27,0,0,1-3.58,1.79c-2-.4-6.74-2.84-7.24-3.07a1.67,1.67,0,0,0-1.55,0,1.29,1.29,0,0,0-.47,1.52,29.09,29.09,0,0,1-5.26-3.55,4.25,4.25,0,0,1,.72-2.84,2.7,2.7,0,0,1,1.86-.86,5.31,5.31,0,0,1,2,.35,33.42,33.42,0,0,1,5.81,2.74c1.37.86,2.87,1.8,4.4,1.45a1.25,1.25,0,0,0,.76-1.23,7.57,7.57,0,0,1,1,1.44,2.39,2.39,0,0,0,.27-1.57C274.77,243.48,275.76,245.53,275.26,246.59Z" style="fill:#263238"></path></g><path d="M291.78,290.1c.2-.86,3.66-4.5,4.22-4.2a6.89,6.89,0,0,1,1.54,3.34c-.24.7-2.93,5.83-6.44,5.3C289.76,294.34,291.78,290.1,291.78,290.1Z" style="fill:#f7978d"></path><path d="M296,285.9s2.37-1,3.14-.59a7.26,7.26,0,0,1,1.74,1.87l-3.34,2.06Z" style="fill:#f7978d"></path><polygon points="288.35 289.91 291.78 290.1 291.1 294.54 284.62 293.56 288.35 289.91" style="fill:#f7978d"></polygon><path d="M244.77,265.72c-7.05-5.22-12.31,2.95-9,8.51,1.28,2.17,12.41,10.69,23.77,14.61,9.49,3.29,26.07,6.37,29.19,6.81l1-6.74-27.88-8.23Z" style="fill:#263238"></path><rect x="234.91" y="314.72" width="1.36" height="5.89" transform="translate(139.56 -65.99) rotate(22.51)" style="fill:#263238"></rect><path d="M266.58,262.15a30.31,30.31,0,0,0-5.66-3.36,3.75,3.75,0,0,0,2.22,4.47,2.47,2.47,0,0,0,3.32-.91A.82.82,0,0,0,266.58,262.15Z" style="fill:#263238"></path><path d="M262.76,261.59a4.05,4.05,0,0,1,2,1.93,2.58,2.58,0,0,1-1.63-.27,4,4,0,0,1-2-1.93A2.43,2.43,0,0,1,262.76,261.59Z" style="fill:#ff5652"></path><path d="M266.41,262a1.16,1.16,0,0,1-1.08.38,23.24,23.24,0,0,1-3.63-2.31,1.33,1.33,0,0,1-.58-1.2A35.55,35.55,0,0,1,266.41,262Z" style="fill:#fff"></path></g><g id="freepik--Sphere--inject-84"><path d="M457.08,336.25A86.49,86.49,0,1,1,425,269.11,86.35,86.35,0,0,1,457.08,336.25Z" style="fill:#FFC100"></path><path d="M405.06,285.6c-.71,46.53-38.79,84.46-85.31,85q-3.63,0-7.18-.2a30.27,30.27,0,0,1-28-27.79,2.66,2.66,0,0,1,0-.28c-.06-.86-.11-1.73-.14-2.6,0-.52,0-1-.05-1.56s0-1.26,0-1.9v0c0-.45,0-.89,0-1.34,0-.19,0-.39,0-.58s0-.51,0-.76c0-.4,0-.8,0-1.2,0-.6.06-1.19.1-1.78v0c0-.51.07-1,.12-1.54s.06-.78.1-1.16.11-1,.17-1.55c.16-1.42.36-2.83.59-4.22A86.87,86.87,0,0,1,356.85,251c1.38-.22,2.78-.41,4.18-.57l.1,0,2.07-.2c.72-.06,1.43-.12,2.15-.16l1.79-.09q.39,0,.78,0c.45,0,.91,0,1.36,0h1.5l1.86,0,1.69.05.49,0c.55,0,1.09,0,1.63.09l.41,0,.55.05a30.3,30.3,0,0,1,27.45,28Q405.11,281.85,405.06,285.6Z" style="fill:#fff;opacity:0.1"></path><path d="M444.25,323.42a86.37,86.37,0,0,1-140.68,67.15,85.9,85.9,0,0,1-19-48,30.27,30.27,0,0,0,28,27.79q3.56.24,7.18.2c46.52-.54,84.6-38.47,85.31-85q.06-3.75-.2-7.43a30.3,30.3,0,0,0-27.45-28,85.83,85.83,0,0,1,47.62,19A86,86,0,0,1,444.25,323.42Z" style="fill:#fff;opacity:0.1"></path><path d="M336.24,419.23a.43.43,0,0,1-.19,0,90.18,90.18,0,0,1-35.2-26.42.49.49,0,0,1,.07-.7.51.51,0,0,1,.71.07,89.08,89.08,0,0,0,34.81,26.13.52.52,0,0,1,.27.66A.5.5,0,0,1,336.24,419.23Z" style="fill:#FFC100"></path><path d="M405.06,285.6c-.71,46.53-38.79,84.46-85.31,85q-3.63,0-7.18-.2a30.27,30.27,0,0,1-28-27.79,2.66,2.66,0,0,1,0-.28c-.06-.86-.11-1.73-.14-2.6,0-.52,0-1-.05-1.56s0-1.26,0-1.9v0q0-1,0-1.92c0-.26,0-.51,0-.76,0-.4,0-.8,0-1.2,0-.6.06-1.19.1-1.78v0c0-.51.07-1,.12-1.54s.06-.78.1-1.16.11-1,.17-1.55c.15-1.42.35-2.83.59-4.22A86.38,86.38,0,0,1,356.85,251c1.38-.23,2.77-.43,4.18-.57l.1,0,2.07-.2c.72-.06,1.43-.12,2.15-.16l1.79-.09q.39,0,.78,0c.45,0,.91,0,1.36,0h1.5l1.86,0,1.69.05.49,0c.55,0,1.09,0,1.63.09l1,.07a30.3,30.3,0,0,1,27.45,28Q405.11,281.85,405.06,285.6Z" style="fill:#fff;opacity:0.1"></path><path d="M426.92,267.28a.54.54,0,0,1-.32-.11,87.41,87.41,0,0,0-9.34-6.61.5.5,0,0,1,.52-.86,88.48,88.48,0,0,1,9.45,6.69.5.5,0,0,1,.08.7A.52.52,0,0,1,426.92,267.28Z" style="fill:#FFC100"></path><path d="M409.24,256.13a.54.54,0,0,1-.22-.05,89.41,89.41,0,0,0-38.3-8.69.5.5,0,0,1,0-1,90.63,90.63,0,0,1,38.73,8.78.5.5,0,0,1,.24.67A.51.51,0,0,1,409.24,256.13Z" style="fill:#FFC100"></path></g></svg>